<svg width="101" height="16" viewBox="0 0 101 16" fill="none" xmlns="http://www.w3.org/2000/svg">
<mask id="path-1-outside-1_29534_7660" maskUnits="userSpaceOnUse" x="0.59375" y="0.219727" width="101" height="15" fill="black">
<rect fill="white" x="0.59375" y="0.219727" width="101" height="15"/>
<path fill-rule="evenodd" clip-rule="evenodd" d="M20.9541 4.45996C21.7341 4.45996 22.4001 4.55047 22.9521 4.73047C23.5041 4.91047 23.9482 5.16233 24.2842 5.48633C24.6321 5.81027 24.8906 6.19381 25.0586 6.6377C25.2266 7.0697 25.3105 7.55013 25.3105 8.07812V13.5498C25.3105 13.6818 25.262 13.79 25.166 13.874C25.0821 13.9579 24.9802 14 24.8604 14H22.7725C22.6405 14 22.5322 13.958 22.4482 13.874C22.3642 13.79 22.3223 13.6818 22.3223 13.5498V12.9199C22.1663 13.1479 21.9563 13.3578 21.6924 13.5498C21.4284 13.7418 21.1159 13.892 20.7559 14C20.4079 14.1199 20.0001 14.1797 19.5322 14.1797C18.8842 14.1797 18.3021 14.0603 17.7861 13.8203C17.2821 13.5683 16.8801 13.2315 16.5801 12.8115C16.2803 12.3916 16.1299 11.9175 16.1299 11.3896C16.13 10.5379 16.4781 9.86594 17.1738 9.37402C17.8698 8.87002 18.7943 8.52766 19.9463 8.34766L22.1963 8.00586V7.75391C22.1963 7.32195 22.1058 6.99166 21.9258 6.76367C21.7457 6.536 21.4161 6.42192 20.9365 6.42188C20.6005 6.42188 20.3244 6.48814 20.1084 6.62012C19.9044 6.75212 19.7421 6.93216 19.6221 7.16016C19.5141 7.31602 19.3638 7.39355 19.1719 7.39355H17.1562C17.0244 7.39355 16.9226 7.35798 16.8506 7.28613C16.7786 7.20213 16.7487 7.10605 16.7607 6.99805C16.7607 6.78205 16.8381 6.53577 16.9941 6.25977C17.1621 5.97186 17.4141 5.68997 17.75 5.41406C18.0859 5.13815 18.5181 4.91044 19.0459 4.73047C19.5739 4.55048 20.2102 4.45997 20.9541 4.45996ZM20.7021 10.0225C20.1382 10.1185 19.7239 10.2677 19.46 10.4717C19.208 10.6637 19.082 10.8923 19.082 11.1562C19.0821 11.3601 19.1427 11.5338 19.2627 11.6777C19.3827 11.8217 19.5385 11.9355 19.7305 12.0195C19.9224 12.0915 20.1381 12.1279 20.3779 12.1279C20.7259 12.1279 21.0385 12.0561 21.3145 11.9121C21.6024 11.7561 21.8245 11.5219 21.9805 11.21C22.1484 10.886 22.2324 10.4839 22.2324 10.0039V9.75195L20.7021 10.0225Z"/>
<path fill-rule="evenodd" clip-rule="evenodd" d="M39.9268 4.45996C40.9828 4.45996 41.8531 4.66984 42.5371 5.08984C43.233 5.50978 43.7545 6.07997 44.1025 6.7998C44.4505 7.51971 44.625 8.34178 44.625 9.26562V9.69824C44.6249 9.83011 44.5774 9.93852 44.4814 10.0225C44.3974 10.1065 44.2948 10.1484 44.1748 10.1484H38.415V10.2744C38.4271 10.6221 38.4869 10.9398 38.5947 11.2275C38.7027 11.5155 38.8707 11.7441 39.0986 11.9121C39.3266 12.0801 39.6028 12.164 39.9268 12.1641C40.1666 12.1641 40.3645 12.1276 40.5205 12.0557C40.6884 11.9717 40.8266 11.882 40.9346 11.7861C41.0426 11.6781 41.1265 11.5876 41.1865 11.5156C41.2945 11.3956 41.3795 11.3238 41.4395 11.2998C41.5114 11.264 41.6191 11.2461 41.7627 11.2461H43.9951C44.115 11.2461 44.2112 11.2816 44.2832 11.3535C44.3672 11.4135 44.4026 11.504 44.3906 11.624C44.3786 11.828 44.2769 12.0743 44.085 12.3623C43.893 12.6501 43.611 12.9378 43.2393 13.2256C42.8793 13.5016 42.4231 13.7302 41.8711 13.9102C41.3192 14.0901 40.6772 14.1797 39.9453 14.1797C38.5293 14.1797 37.4005 13.7963 36.5605 13.0283C35.7207 12.2604 35.2831 11.1202 35.2471 9.6084V8.97754C35.2831 8.02974 35.493 7.21974 35.877 6.54785C36.2729 5.8639 36.8131 5.34798 37.4971 5C38.193 4.64005 39.0029 4.45999 39.9268 4.45996ZM39.9268 6.42188C39.6028 6.42191 39.3266 6.50028 39.0986 6.65625C38.8828 6.81224 38.7147 7.03442 38.5947 7.32227C38.4748 7.6102 38.415 7.94622 38.415 8.33008V8.36621H41.457V8.33008C41.457 7.94624 41.3972 7.61019 41.2773 7.32227C41.1694 7.03429 40.9949 6.81225 40.7549 6.65625C40.5269 6.50025 40.2508 6.42188 39.9268 6.42188Z"/>
<path fill-rule="evenodd" clip-rule="evenodd" d="M62.6279 4.45996C63.6117 4.46001 64.446 4.62234 65.1299 4.94629C65.8256 5.27024 66.3651 5.73225 66.749 6.33203C67.133 6.93198 67.3494 7.65787 67.3975 8.50977C67.4095 8.73777 67.415 9.00831 67.415 9.32031C67.415 9.62014 67.4095 9.88999 67.3975 10.1299C67.3495 10.9697 67.1395 11.6957 66.7676 12.3076C66.4076 12.9076 65.8796 13.3703 65.1836 13.6943C64.4997 14.0183 63.6477 14.1796 62.6279 14.1797C61.6199 14.1797 60.7673 14.0183 60.0713 13.6943C59.3873 13.3703 58.8593 12.9076 58.4873 12.3076C58.1274 11.6957 57.924 10.9697 57.876 10.1299C57.864 9.88999 57.8574 9.62015 57.8574 9.32031C57.8574 9.00831 57.864 8.73777 57.876 8.50977C57.924 7.6579 58.1395 6.93196 58.5234 6.33203C58.9074 5.73203 59.442 5.27029 60.126 4.94629C60.8219 4.62238 61.6561 4.45996 62.6279 4.45996ZM62.6279 6.65625C62.0999 6.65625 61.709 6.82416 61.457 7.16016C61.2052 7.48408 61.068 7.96402 61.0439 8.59961C61.0319 8.77961 61.0254 9.02031 61.0254 9.32031C61.0254 9.62017 61.0319 9.8601 61.0439 10.04C61.0679 10.6879 61.2051 11.1741 61.457 11.498C61.709 11.822 62.0999 11.9844 62.6279 11.9844C63.1677 11.9843 63.5579 11.822 63.7979 11.498C64.0498 11.1741 64.1935 10.6879 64.2295 10.04C64.2415 9.8601 64.2471 9.62017 64.2471 9.32031C64.2471 9.02031 64.2415 8.77961 64.2295 8.59961C64.1935 7.96398 64.0497 7.48409 63.7979 7.16016C63.5579 6.82425 63.1677 6.65634 62.6279 6.65625Z"/>
<path d="M71.8857 4.63965C72.0177 4.63965 72.126 4.68171 72.21 4.76562C72.2939 4.84959 72.3359 4.95791 72.3359 5.08984V10.0039C72.3359 11.1799 72.8639 11.7676 73.9199 11.7676C74.4118 11.7676 74.8019 11.6182 75.0898 11.3184C75.3898 11.0064 75.54 10.5679 75.54 10.0039V5.08984C75.5401 4.95791 75.582 4.84959 75.666 4.76562C75.75 4.68181 75.8584 4.63965 75.9902 4.63965H78.2402C78.3719 4.63973 78.4796 4.68195 78.5635 4.76562C78.6474 4.84959 78.6894 4.95791 78.6895 5.08984V13.5498C78.6895 13.6818 78.6475 13.79 78.5635 13.874C78.4796 13.9578 78.372 13.9999 78.2402 14H76.1514C76.0316 13.9999 75.924 13.9578 75.8281 13.874C75.7441 13.79 75.7021 13.6818 75.7021 13.5498V12.8662C75.3901 13.2982 74.9815 13.6284 74.4775 13.8564C73.9856 14.0723 73.3977 14.1797 72.7139 14.1797C72.0299 14.1797 71.4179 14.0239 70.8779 13.7119C70.3499 13.3999 69.9357 12.9438 69.6357 12.3438C69.3359 11.7319 69.1856 10.9881 69.1855 10.1123V5.08984C69.1856 4.95791 69.2276 4.84959 69.3115 4.76562C69.3955 4.68167 69.5038 4.63967 69.6357 4.63965H71.8857Z"/>
<path d="M84.6592 4.45996C85.3551 4.45997 85.955 4.54395 86.459 4.71191C86.975 4.86791 87.4069 5.07223 87.7549 5.32422C88.1149 5.5762 88.3854 5.83368 88.5654 6.09766C88.7454 6.36166 88.8415 6.60236 88.8535 6.81836C88.8654 6.9381 88.8289 7.04577 88.7451 7.1416C88.6611 7.2256 88.565 7.26758 88.457 7.26758H86.585C86.5371 7.26757 86.4893 7.26194 86.4414 7.25C86.3935 7.22603 86.3514 7.20171 86.3154 7.17773C86.1714 7.10573 86.0268 7.00965 85.8828 6.88965C85.7389 6.76976 85.5707 6.66233 85.3789 6.56641C85.1869 6.47042 84.9471 6.42189 84.6592 6.42188C84.3354 6.42188 84.0833 6.49385 83.9033 6.6377C83.7233 6.7817 83.6328 6.96829 83.6328 7.19629C83.6329 7.35218 83.6814 7.49601 83.7773 7.62793C83.8854 7.75989 84.0953 7.88031 84.4072 7.98828C84.7312 8.09626 85.2295 8.21569 85.9014 8.34766C86.7292 8.47965 87.3889 8.69616 87.8809 8.99609C88.3729 9.28409 88.7208 9.62646 88.9248 10.0225C89.1287 10.4064 89.2314 10.8142 89.2314 11.2461C89.2314 11.8221 89.057 12.3324 88.709 12.7764C88.373 13.2202 87.8691 13.5684 87.1973 13.8203C86.5253 14.0603 85.709 14.1797 84.749 14.1797C83.969 14.1797 83.303 14.0957 82.751 13.9277C82.2111 13.7478 81.7669 13.5322 81.4189 13.2803C81.0829 13.0283 80.8311 12.7699 80.6631 12.5059C80.4951 12.2299 80.4056 11.9957 80.3936 11.8037C80.3816 11.6718 80.4236 11.5644 80.5195 11.4805C80.6155 11.3845 80.7172 11.3359 80.8252 11.3359H82.877C82.9127 11.3359 82.9429 11.3417 82.9668 11.3535C82.9908 11.3655 83.0272 11.3898 83.0752 11.4258C83.2312 11.5098 83.387 11.618 83.543 11.75C83.699 11.87 83.879 11.9782 84.083 12.0742C84.287 12.1702 84.5333 12.2178 84.8213 12.2178C85.1572 12.2177 85.439 12.1515 85.667 12.0195C85.8949 11.8875 86.0088 11.6897 86.0088 11.4258C86.0087 11.2339 85.9546 11.078 85.8467 10.958C85.7386 10.8261 85.5165 10.7 85.1807 10.5801C84.8567 10.4601 84.3648 10.3397 83.7051 10.2197C83.0812 10.0758 82.5353 9.89004 82.0674 9.66211C81.5995 9.42215 81.2393 9.11605 80.9873 8.74414C80.7354 8.36024 80.6094 7.89823 80.6094 7.3584C80.6094 6.8784 80.7651 6.41568 81.0771 5.97168C81.3891 5.52779 81.8454 5.16755 82.4453 4.8916C83.0452 4.60371 83.7833 4.45996 84.6592 4.45996Z"/>
<path fill-rule="evenodd" clip-rule="evenodd" d="M95.2383 4.45996C96.2943 4.45996 97.1646 4.66984 97.8486 5.08984C98.5445 5.50979 99.0661 6.07998 99.4141 6.7998C99.762 7.51971 99.9365 8.34178 99.9365 9.26562V9.69824C99.9365 9.83013 99.8879 9.93851 99.792 10.0225C99.7081 10.1062 99.6061 10.1484 99.4863 10.1484H93.7266V10.2744C93.7386 10.6221 93.7984 10.9398 93.9062 11.2275C94.0142 11.5155 94.1822 11.7441 94.4102 11.9121C94.6382 12.0801 94.9143 12.1641 95.2383 12.1641C95.4782 12.1641 95.676 12.1276 95.832 12.0557C95.9999 11.9717 96.1381 11.8821 96.2461 11.7861C96.3541 11.6781 96.438 11.5876 96.498 11.5156C96.6059 11.3958 96.69 11.3239 96.75 11.2998C96.822 11.2638 96.9303 11.2461 97.0742 11.2461H99.3066C99.4265 11.2462 99.5228 11.2816 99.5947 11.3535C99.6787 11.4135 99.7141 11.504 99.7021 11.624C99.6901 11.828 99.5885 12.0743 99.3965 12.3623C99.2046 12.6501 98.9225 12.9378 98.5508 13.2256C98.1908 13.5015 97.7345 13.7302 97.1826 13.9102C96.6306 14.0902 95.9879 14.1797 95.2559 14.1797C93.8401 14.1796 92.712 13.7962 91.8721 13.0283C91.0321 12.2604 90.5947 11.1202 90.5586 9.6084V8.97754C90.5946 8.02974 90.8045 7.21974 91.1885 6.54785C91.5845 5.86395 92.1247 5.34797 92.8086 5C93.5045 4.64008 94.3144 4.45996 95.2383 4.45996ZM95.2383 6.42188C94.9143 6.42188 94.6382 6.50025 94.4102 6.65625C94.1943 6.81224 94.0262 7.03436 93.9062 7.32227C93.7863 7.61021 93.7266 7.94619 93.7266 8.33008V8.36621H96.7686V8.33008C96.7686 7.94611 96.7079 7.61025 96.5879 7.32227C96.4799 7.03434 96.3063 6.81224 96.0664 6.65625C95.8384 6.50025 95.5623 6.42188 95.2383 6.42188Z"/>
<path d="M4.2041 1.40039C4.53998 1.40042 4.72568 1.53202 4.76172 1.7959L5.93164 8.83398L7.22754 4.67578C7.26354 4.57979 7.32421 4.4781 7.4082 4.37012C7.4922 4.25013 7.63027 4.19043 7.82227 4.19043H9.11816C9.32207 4.19046 9.46583 4.25016 9.5498 4.37012C9.63374 4.47803 9.68789 4.57985 9.71191 4.67578L11.0078 8.81641L12.1777 1.7959C12.2138 1.53194 12.4004 1.40039 12.7363 1.40039H14.9678C15.0758 1.40039 15.1663 1.44237 15.2383 1.52637C15.3101 1.59829 15.3457 1.68246 15.3457 1.77832V1.9043L13.3838 13.4062C13.3597 13.5621 13.2879 13.7004 13.168 13.8203C13.048 13.9402 12.8855 14 12.6816 14H10.9717C10.7678 13.9999 10.6118 13.9458 10.5039 13.8379C10.396 13.73 10.3241 13.6281 10.2881 13.5322L8.46973 8.38379L6.65234 13.5322C6.61633 13.6282 6.54351 13.7299 6.43555 13.8379C6.33959 13.9457 6.19006 13.9999 5.98633 14H4.27637C4.07247 14 3.91002 13.9402 3.79004 13.8203C3.67011 13.7004 3.59826 13.5621 3.57422 13.4062L1.6123 1.9043C1.60031 1.88031 1.59376 1.85602 1.59375 1.83203V1.77832C1.59375 1.68237 1.63022 1.59834 1.70215 1.52637C1.78605 1.44246 1.8758 1.40048 1.97168 1.40039H4.2041Z"/>
<path d="M29.9512 4.63965C30.0832 4.63965 30.1914 4.68818 30.2754 4.78418C30.3593 4.86813 30.4013 4.96994 30.4014 5.08984V5.80957C30.7253 5.43767 31.1098 5.15025 31.5537 4.94629C32.0096 4.74237 32.5192 4.6397 33.083 4.63965H33.875C33.995 4.63965 34.0977 4.68169 34.1816 4.76562C34.2776 4.84959 34.3252 4.95791 34.3252 5.08984V6.94434C34.3251 7.06407 34.2773 7.17174 34.1816 7.26758C34.0976 7.35158 33.995 7.39355 33.875 7.39355H32.1299C31.638 7.39355 31.2535 7.53177 30.9775 7.80762C30.7135 8.07162 30.5811 8.45038 30.5811 8.94238V13.5498C30.5811 13.6818 30.5335 13.79 30.4375 13.874C30.3535 13.958 30.2453 14 30.1133 14H27.8818C27.7499 14 27.6416 13.958 27.5576 13.874C27.4736 13.79 27.4316 13.6818 27.4316 13.5498V5.08984C27.4317 4.96992 27.4737 4.86814 27.5576 4.78418C27.6416 4.68818 27.7498 4.63965 27.8818 4.63965H29.9512Z"/>
<path d="M49.1562 1.21973C49.2882 1.21973 49.3965 1.2618 49.4805 1.3457C49.5645 1.42969 49.6064 1.53796 49.6064 1.66992V5.68359C49.9304 5.3117 50.327 5.01772 50.7949 4.80176C51.2747 4.57394 51.8265 4.45999 52.4502 4.45996C53.1462 4.45996 53.7647 4.61573 54.3047 4.92773C54.8567 5.23973 55.2886 5.70247 55.6006 6.31445C55.9124 6.91438 56.0684 7.65252 56.0684 8.52832V13.5498C56.0684 13.6818 56.0264 13.79 55.9424 13.874C55.8584 13.958 55.7501 14 55.6182 14H53.2969C53.1769 14 53.0686 13.958 52.9727 13.874C52.8887 13.79 52.8467 13.6818 52.8467 13.5498V8.63574C52.8466 8.07187 52.7086 7.6398 52.4326 7.33984C52.1686 7.02786 51.7721 6.87207 51.2441 6.87207C50.7524 6.87214 50.3566 7.02802 50.0566 7.33984C49.7567 7.6398 49.6065 8.07187 49.6064 8.63574V13.5498C49.6064 13.6818 49.5645 13.79 49.4805 13.874C49.3965 13.958 49.2882 14 49.1562 14H46.8525C46.7205 14 46.6123 13.958 46.5283 13.874C46.4444 13.79 46.4023 13.6818 46.4023 13.5498V1.66992C46.4024 1.53796 46.4443 1.42969 46.5283 1.3457C46.6123 1.26175 46.7206 1.21973 46.8525 1.21973H49.1562Z"/>
</mask>
<path fill-rule="evenodd" clip-rule="evenodd" d="M20.9541 4.45996C21.7341 4.45996 22.4001 4.55047 22.9521 4.73047C23.5041 4.91047 23.9482 5.16233 24.2842 5.48633C24.6321 5.81027 24.8906 6.19381 25.0586 6.6377C25.2266 7.0697 25.3105 7.55013 25.3105 8.07812V13.5498C25.3105 13.6818 25.262 13.79 25.166 13.874C25.0821 13.9579 24.9802 14 24.8604 14H22.7725C22.6405 14 22.5322 13.958 22.4482 13.874C22.3642 13.79 22.3223 13.6818 22.3223 13.5498V12.9199C22.1663 13.1479 21.9563 13.3578 21.6924 13.5498C21.4284 13.7418 21.1159 13.892 20.7559 14C20.4079 14.1199 20.0001 14.1797 19.5322 14.1797C18.8842 14.1797 18.3021 14.0603 17.7861 13.8203C17.2821 13.5683 16.8801 13.2315 16.5801 12.8115C16.2803 12.3916 16.1299 11.9175 16.1299 11.3896C16.13 10.5379 16.4781 9.86594 17.1738 9.37402C17.8698 8.87002 18.7943 8.52766 19.9463 8.34766L22.1963 8.00586V7.75391C22.1963 7.32195 22.1058 6.99166 21.9258 6.76367C21.7457 6.536 21.4161 6.42192 20.9365 6.42188C20.6005 6.42188 20.3244 6.48814 20.1084 6.62012C19.9044 6.75212 19.7421 6.93216 19.6221 7.16016C19.5141 7.31602 19.3638 7.39355 19.1719 7.39355H17.1562C17.0244 7.39355 16.9226 7.35798 16.8506 7.28613C16.7786 7.20213 16.7487 7.10605 16.7607 6.99805C16.7607 6.78205 16.8381 6.53577 16.9941 6.25977C17.1621 5.97186 17.4141 5.68997 17.75 5.41406C18.0859 5.13815 18.5181 4.91044 19.0459 4.73047C19.5739 4.55048 20.2102 4.45997 20.9541 4.45996ZM20.7021 10.0225C20.1382 10.1185 19.7239 10.2677 19.46 10.4717C19.208 10.6637 19.082 10.8923 19.082 11.1562C19.0821 11.3601 19.1427 11.5338 19.2627 11.6777C19.3827 11.8217 19.5385 11.9355 19.7305 12.0195C19.9224 12.0915 20.1381 12.1279 20.3779 12.1279C20.7259 12.1279 21.0385 12.0561 21.3145 11.9121C21.6024 11.7561 21.8245 11.5219 21.9805 11.21C22.1484 10.886 22.2324 10.4839 22.2324 10.0039V9.75195L20.7021 10.0225Z" fill="#00A76F"/>
<path fill-rule="evenodd" clip-rule="evenodd" d="M39.9268 4.45996C40.9828 4.45996 41.8531 4.66984 42.5371 5.08984C43.233 5.50978 43.7545 6.07997 44.1025 6.7998C44.4505 7.51971 44.625 8.34178 44.625 9.26562V9.69824C44.6249 9.83011 44.5774 9.93852 44.4814 10.0225C44.3974 10.1065 44.2948 10.1484 44.1748 10.1484H38.415V10.2744C38.4271 10.6221 38.4869 10.9398 38.5947 11.2275C38.7027 11.5155 38.8707 11.7441 39.0986 11.9121C39.3266 12.0801 39.6028 12.164 39.9268 12.1641C40.1666 12.1641 40.3645 12.1276 40.5205 12.0557C40.6884 11.9717 40.8266 11.882 40.9346 11.7861C41.0426 11.6781 41.1265 11.5876 41.1865 11.5156C41.2945 11.3956 41.3795 11.3238 41.4395 11.2998C41.5114 11.264 41.6191 11.2461 41.7627 11.2461H43.9951C44.115 11.2461 44.2112 11.2816 44.2832 11.3535C44.3672 11.4135 44.4026 11.504 44.3906 11.624C44.3786 11.828 44.2769 12.0743 44.085 12.3623C43.893 12.6501 43.611 12.9378 43.2393 13.2256C42.8793 13.5016 42.4231 13.7302 41.8711 13.9102C41.3192 14.0901 40.6772 14.1797 39.9453 14.1797C38.5293 14.1797 37.4005 13.7963 36.5605 13.0283C35.7207 12.2604 35.2831 11.1202 35.2471 9.6084V8.97754C35.2831 8.02974 35.493 7.21974 35.877 6.54785C36.2729 5.8639 36.8131 5.34798 37.4971 5C38.193 4.64005 39.0029 4.45999 39.9268 4.45996ZM39.9268 6.42188C39.6028 6.42191 39.3266 6.50028 39.0986 6.65625C38.8828 6.81224 38.7147 7.03442 38.5947 7.32227C38.4748 7.6102 38.415 7.94622 38.415 8.33008V8.36621H41.457V8.33008C41.457 7.94624 41.3972 7.61019 41.2773 7.32227C41.1694 7.03429 40.9949 6.81225 40.7549 6.65625C40.5269 6.50025 40.2508 6.42188 39.9268 6.42188Z" fill="#00A76F"/>
<path fill-rule="evenodd" clip-rule="evenodd" d="M62.6279 4.45996C63.6117 4.46001 64.446 4.62234 65.1299 4.94629C65.8256 5.27024 66.3651 5.73225 66.749 6.33203C67.133 6.93198 67.3494 7.65787 67.3975 8.50977C67.4095 8.73777 67.415 9.00831 67.415 9.32031C67.415 9.62014 67.4095 9.88999 67.3975 10.1299C67.3495 10.9697 67.1395 11.6957 66.7676 12.3076C66.4076 12.9076 65.8796 13.3703 65.1836 13.6943C64.4997 14.0183 63.6477 14.1796 62.6279 14.1797C61.6199 14.1797 60.7673 14.0183 60.0713 13.6943C59.3873 13.3703 58.8593 12.9076 58.4873 12.3076C58.1274 11.6957 57.924 10.9697 57.876 10.1299C57.864 9.88999 57.8574 9.62015 57.8574 9.32031C57.8574 9.00831 57.864 8.73777 57.876 8.50977C57.924 7.6579 58.1395 6.93196 58.5234 6.33203C58.9074 5.73203 59.442 5.27029 60.126 4.94629C60.8219 4.62238 61.6561 4.45996 62.6279 4.45996ZM62.6279 6.65625C62.0999 6.65625 61.709 6.82416 61.457 7.16016C61.2052 7.48408 61.068 7.96402 61.0439 8.59961C61.0319 8.77961 61.0254 9.02031 61.0254 9.32031C61.0254 9.62017 61.0319 9.8601 61.0439 10.04C61.0679 10.6879 61.2051 11.1741 61.457 11.498C61.709 11.822 62.0999 11.9844 62.6279 11.9844C63.1677 11.9843 63.5579 11.822 63.7979 11.498C64.0498 11.1741 64.1935 10.6879 64.2295 10.04C64.2415 9.8601 64.2471 9.62017 64.2471 9.32031C64.2471 9.02031 64.2415 8.77961 64.2295 8.59961C64.1935 7.96398 64.0497 7.48409 63.7979 7.16016C63.5579 6.82425 63.1677 6.65634 62.6279 6.65625Z" fill="#00A76F"/>
<path d="M71.8857 4.63965C72.0177 4.63965 72.126 4.68171 72.21 4.76562C72.2939 4.84959 72.3359 4.95791 72.3359 5.08984V10.0039C72.3359 11.1799 72.8639 11.7676 73.9199 11.7676C74.4118 11.7676 74.8019 11.6182 75.0898 11.3184C75.3898 11.0064 75.54 10.5679 75.54 10.0039V5.08984C75.5401 4.95791 75.582 4.84959 75.666 4.76562C75.75 4.68181 75.8584 4.63965 75.9902 4.63965H78.2402C78.3719 4.63973 78.4796 4.68195 78.5635 4.76562C78.6474 4.84959 78.6894 4.95791 78.6895 5.08984V13.5498C78.6895 13.6818 78.6475 13.79 78.5635 13.874C78.4796 13.9578 78.372 13.9999 78.2402 14H76.1514C76.0316 13.9999 75.924 13.9578 75.8281 13.874C75.7441 13.79 75.7021 13.6818 75.7021 13.5498V12.8662C75.3901 13.2982 74.9815 13.6284 74.4775 13.8564C73.9856 14.0723 73.3977 14.1797 72.7139 14.1797C72.0299 14.1797 71.4179 14.0239 70.8779 13.7119C70.3499 13.3999 69.9357 12.9438 69.6357 12.3438C69.3359 11.7319 69.1856 10.9881 69.1855 10.1123V5.08984C69.1856 4.95791 69.2276 4.84959 69.3115 4.76562C69.3955 4.68167 69.5038 4.63967 69.6357 4.63965H71.8857Z" fill="#00A76F"/>
<path d="M84.6592 4.45996C85.3551 4.45997 85.955 4.54395 86.459 4.71191C86.975 4.86791 87.4069 5.07223 87.7549 5.32422C88.1149 5.5762 88.3854 5.83368 88.5654 6.09766C88.7454 6.36166 88.8415 6.60236 88.8535 6.81836C88.8654 6.9381 88.8289 7.04577 88.7451 7.1416C88.6611 7.2256 88.565 7.26758 88.457 7.26758H86.585C86.5371 7.26757 86.4893 7.26194 86.4414 7.25C86.3935 7.22603 86.3514 7.20171 86.3154 7.17773C86.1714 7.10573 86.0268 7.00965 85.8828 6.88965C85.7389 6.76976 85.5707 6.66233 85.3789 6.56641C85.1869 6.47042 84.9471 6.42189 84.6592 6.42188C84.3354 6.42188 84.0833 6.49385 83.9033 6.6377C83.7233 6.7817 83.6328 6.96829 83.6328 7.19629C83.6329 7.35218 83.6814 7.49601 83.7773 7.62793C83.8854 7.75989 84.0953 7.88031 84.4072 7.98828C84.7312 8.09626 85.2295 8.21569 85.9014 8.34766C86.7292 8.47965 87.3889 8.69616 87.8809 8.99609C88.3729 9.28409 88.7208 9.62646 88.9248 10.0225C89.1287 10.4064 89.2314 10.8142 89.2314 11.2461C89.2314 11.8221 89.057 12.3324 88.709 12.7764C88.373 13.2202 87.8691 13.5684 87.1973 13.8203C86.5253 14.0603 85.709 14.1797 84.749 14.1797C83.969 14.1797 83.303 14.0957 82.751 13.9277C82.2111 13.7478 81.7669 13.5322 81.4189 13.2803C81.0829 13.0283 80.8311 12.7699 80.6631 12.5059C80.4951 12.2299 80.4056 11.9957 80.3936 11.8037C80.3816 11.6718 80.4236 11.5644 80.5195 11.4805C80.6155 11.3845 80.7172 11.3359 80.8252 11.3359H82.877C82.9127 11.3359 82.9429 11.3417 82.9668 11.3535C82.9908 11.3655 83.0272 11.3898 83.0752 11.4258C83.2312 11.5098 83.387 11.618 83.543 11.75C83.699 11.87 83.879 11.9782 84.083 12.0742C84.287 12.1702 84.5333 12.2178 84.8213 12.2178C85.1572 12.2177 85.439 12.1515 85.667 12.0195C85.8949 11.8875 86.0088 11.6897 86.0088 11.4258C86.0087 11.2339 85.9546 11.078 85.8467 10.958C85.7386 10.8261 85.5165 10.7 85.1807 10.5801C84.8567 10.4601 84.3648 10.3397 83.7051 10.2197C83.0812 10.0758 82.5353 9.89004 82.0674 9.66211C81.5995 9.42215 81.2393 9.11605 80.9873 8.74414C80.7354 8.36024 80.6094 7.89823 80.6094 7.3584C80.6094 6.8784 80.7651 6.41568 81.0771 5.97168C81.3891 5.52779 81.8454 5.16755 82.4453 4.8916C83.0452 4.60371 83.7833 4.45996 84.6592 4.45996Z" fill="#00A76F"/>
<path fill-rule="evenodd" clip-rule="evenodd" d="M95.2383 4.45996C96.2943 4.45996 97.1646 4.66984 97.8486 5.08984C98.5445 5.50979 99.0661 6.07998 99.4141 6.7998C99.762 7.51971 99.9365 8.34178 99.9365 9.26562V9.69824C99.9365 9.83013 99.8879 9.93851 99.792 10.0225C99.7081 10.1062 99.6061 10.1484 99.4863 10.1484H93.7266V10.2744C93.7386 10.6221 93.7984 10.9398 93.9062 11.2275C94.0142 11.5155 94.1822 11.7441 94.4102 11.9121C94.6382 12.0801 94.9143 12.1641 95.2383 12.1641C95.4782 12.1641 95.676 12.1276 95.832 12.0557C95.9999 11.9717 96.1381 11.8821 96.2461 11.7861C96.3541 11.6781 96.438 11.5876 96.498 11.5156C96.6059 11.3958 96.69 11.3239 96.75 11.2998C96.822 11.2638 96.9303 11.2461 97.0742 11.2461H99.3066C99.4265 11.2462 99.5228 11.2816 99.5947 11.3535C99.6787 11.4135 99.7141 11.504 99.7021 11.624C99.6901 11.828 99.5885 12.0743 99.3965 12.3623C99.2046 12.6501 98.9225 12.9378 98.5508 13.2256C98.1908 13.5015 97.7345 13.7302 97.1826 13.9102C96.6306 14.0902 95.9879 14.1797 95.2559 14.1797C93.8401 14.1796 92.712 13.7962 91.8721 13.0283C91.0321 12.2604 90.5947 11.1202 90.5586 9.6084V8.97754C90.5946 8.02974 90.8045 7.21974 91.1885 6.54785C91.5845 5.86395 92.1247 5.34797 92.8086 5C93.5045 4.64008 94.3144 4.45996 95.2383 4.45996ZM95.2383 6.42188C94.9143 6.42188 94.6382 6.50025 94.4102 6.65625C94.1943 6.81224 94.0262 7.03436 93.9062 7.32227C93.7863 7.61021 93.7266 7.94619 93.7266 8.33008V8.36621H96.7686V8.33008C96.7686 7.94611 96.7079 7.61025 96.5879 7.32227C96.4799 7.03434 96.3063 6.81224 96.0664 6.65625C95.8384 6.50025 95.5623 6.42188 95.2383 6.42188Z" fill="#00A76F"/>
<path d="M4.2041 1.40039C4.53998 1.40042 4.72568 1.53202 4.76172 1.7959L5.93164 8.83398L7.22754 4.67578C7.26354 4.57979 7.32421 4.4781 7.4082 4.37012C7.4922 4.25013 7.63027 4.19043 7.82227 4.19043H9.11816C9.32207 4.19046 9.46583 4.25016 9.5498 4.37012C9.63374 4.47803 9.68789 4.57985 9.71191 4.67578L11.0078 8.81641L12.1777 1.7959C12.2138 1.53194 12.4004 1.40039 12.7363 1.40039H14.9678C15.0758 1.40039 15.1663 1.44237 15.2383 1.52637C15.3101 1.59829 15.3457 1.68246 15.3457 1.77832V1.9043L13.3838 13.4062C13.3597 13.5621 13.2879 13.7004 13.168 13.8203C13.048 13.9402 12.8855 14 12.6816 14H10.9717C10.7678 13.9999 10.6118 13.9458 10.5039 13.8379C10.396 13.73 10.3241 13.6281 10.2881 13.5322L8.46973 8.38379L6.65234 13.5322C6.61633 13.6282 6.54351 13.7299 6.43555 13.8379C6.33959 13.9457 6.19006 13.9999 5.98633 14H4.27637C4.07247 14 3.91002 13.9402 3.79004 13.8203C3.67011 13.7004 3.59826 13.5621 3.57422 13.4062L1.6123 1.9043C1.60031 1.88031 1.59376 1.85602 1.59375 1.83203V1.77832C1.59375 1.68237 1.63022 1.59834 1.70215 1.52637C1.78605 1.44246 1.8758 1.40048 1.97168 1.40039H4.2041Z" fill="#00A76F"/>
<path d="M29.9512 4.63965C30.0832 4.63965 30.1914 4.68818 30.2754 4.78418C30.3593 4.86813 30.4013 4.96994 30.4014 5.08984V5.80957C30.7253 5.43767 31.1098 5.15025 31.5537 4.94629C32.0096 4.74237 32.5192 4.6397 33.083 4.63965H33.875C33.995 4.63965 34.0977 4.68169 34.1816 4.76562C34.2776 4.84959 34.3252 4.95791 34.3252 5.08984V6.94434C34.3251 7.06407 34.2773 7.17174 34.1816 7.26758C34.0976 7.35158 33.995 7.39355 33.875 7.39355H32.1299C31.638 7.39355 31.2535 7.53177 30.9775 7.80762C30.7135 8.07162 30.5811 8.45038 30.5811 8.94238V13.5498C30.5811 13.6818 30.5335 13.79 30.4375 13.874C30.3535 13.958 30.2453 14 30.1133 14H27.8818C27.7499 14 27.6416 13.958 27.5576 13.874C27.4736 13.79 27.4316 13.6818 27.4316 13.5498V5.08984C27.4317 4.96992 27.4737 4.86814 27.5576 4.78418C27.6416 4.68818 27.7498 4.63965 27.8818 4.63965H29.9512Z" fill="#00A76F"/>
<path d="M49.1562 1.21973C49.2882 1.21973 49.3965 1.2618 49.4805 1.3457C49.5645 1.42969 49.6064 1.53796 49.6064 1.66992V5.68359C49.9304 5.3117 50.327 5.01772 50.7949 4.80176C51.2747 4.57394 51.8265 4.45999 52.4502 4.45996C53.1462 4.45996 53.7647 4.61573 54.3047 4.92773C54.8567 5.23973 55.2886 5.70247 55.6006 6.31445C55.9124 6.91438 56.0684 7.65252 56.0684 8.52832V13.5498C56.0684 13.6818 56.0264 13.79 55.9424 13.874C55.8584 13.958 55.7501 14 55.6182 14H53.2969C53.1769 14 53.0686 13.958 52.9727 13.874C52.8887 13.79 52.8467 13.6818 52.8467 13.5498V8.63574C52.8466 8.07187 52.7086 7.6398 52.4326 7.33984C52.1686 7.02786 51.7721 6.87207 51.2441 6.87207C50.7524 6.87214 50.3566 7.02802 50.0566 7.33984C49.7567 7.6398 49.6065 8.07187 49.6064 8.63574V13.5498C49.6064 13.6818 49.5645 13.79 49.4805 13.874C49.3965 13.958 49.2882 14 49.1562 14H46.8525C46.7205 14 46.6123 13.958 46.5283 13.874C46.4444 13.79 46.4023 13.6818 46.4023 13.5498V1.66992C46.4024 1.53796 46.4443 1.42969 46.5283 1.3457C46.6123 1.26175 46.7206 1.21973 46.8525 1.21973H49.1562Z" fill="#00A76F"/>
<path fill-rule="evenodd" clip-rule="evenodd" d="M20.9541 4.45996C21.7341 4.45996 22.4001 4.55047 22.9521 4.73047C23.5041 4.91047 23.9482 5.16233 24.2842 5.48633C24.6321 5.81027 24.8906 6.19381 25.0586 6.6377C25.2266 7.0697 25.3105 7.55013 25.3105 8.07812V13.5498C25.3105 13.6818 25.262 13.79 25.166 13.874C25.0821 13.9579 24.9802 14 24.8604 14H22.7725C22.6405 14 22.5322 13.958 22.4482 13.874C22.3642 13.79 22.3223 13.6818 22.3223 13.5498V12.9199C22.1663 13.1479 21.9563 13.3578 21.6924 13.5498C21.4284 13.7418 21.1159 13.892 20.7559 14C20.4079 14.1199 20.0001 14.1797 19.5322 14.1797C18.8842 14.1797 18.3021 14.0603 17.7861 13.8203C17.2821 13.5683 16.8801 13.2315 16.5801 12.8115C16.2803 12.3916 16.1299 11.9175 16.1299 11.3896C16.13 10.5379 16.4781 9.86594 17.1738 9.37402C17.8698 8.87002 18.7943 8.52766 19.9463 8.34766L22.1963 8.00586V7.75391C22.1963 7.32195 22.1058 6.99166 21.9258 6.76367C21.7457 6.536 21.4161 6.42192 20.9365 6.42188C20.6005 6.42188 20.3244 6.48814 20.1084 6.62012C19.9044 6.75212 19.7421 6.93216 19.6221 7.16016C19.5141 7.31602 19.3638 7.39355 19.1719 7.39355H17.1562C17.0244 7.39355 16.9226 7.35798 16.8506 7.28613C16.7786 7.20213 16.7487 7.10605 16.7607 6.99805C16.7607 6.78205 16.8381 6.53577 16.9941 6.25977C17.1621 5.97186 17.4141 5.68997 17.75 5.41406C18.0859 5.13815 18.5181 4.91044 19.0459 4.73047C19.5739 4.55048 20.2102 4.45997 20.9541 4.45996ZM20.7021 10.0225C20.1382 10.1185 19.7239 10.2677 19.46 10.4717C19.208 10.6637 19.082 10.8923 19.082 11.1562C19.0821 11.3601 19.1427 11.5338 19.2627 11.6777C19.3827 11.8217 19.5385 11.9355 19.7305 12.0195C19.9224 12.0915 20.1381 12.1279 20.3779 12.1279C20.7259 12.1279 21.0385 12.0561 21.3145 11.9121C21.6024 11.7561 21.8245 11.5219 21.9805 11.21C22.1484 10.886 22.2324 10.4839 22.2324 10.0039V9.75195L20.7021 10.0225Z" stroke="#00A76F" stroke-opacity="0.1" stroke-width="2" mask="url(#path-1-outside-1_29534_7660)"/>
<path fill-rule="evenodd" clip-rule="evenodd" d="M39.9268 4.45996C40.9828 4.45996 41.8531 4.66984 42.5371 5.08984C43.233 5.50978 43.7545 6.07997 44.1025 6.7998C44.4505 7.51971 44.625 8.34178 44.625 9.26562V9.69824C44.6249 9.83011 44.5774 9.93852 44.4814 10.0225C44.3974 10.1065 44.2948 10.1484 44.1748 10.1484H38.415V10.2744C38.4271 10.6221 38.4869 10.9398 38.5947 11.2275C38.7027 11.5155 38.8707 11.7441 39.0986 11.9121C39.3266 12.0801 39.6028 12.164 39.9268 12.1641C40.1666 12.1641 40.3645 12.1276 40.5205 12.0557C40.6884 11.9717 40.8266 11.882 40.9346 11.7861C41.0426 11.6781 41.1265 11.5876 41.1865 11.5156C41.2945 11.3956 41.3795 11.3238 41.4395 11.2998C41.5114 11.264 41.6191 11.2461 41.7627 11.2461H43.9951C44.115 11.2461 44.2112 11.2816 44.2832 11.3535C44.3672 11.4135 44.4026 11.504 44.3906 11.624C44.3786 11.828 44.2769 12.0743 44.085 12.3623C43.893 12.6501 43.611 12.9378 43.2393 13.2256C42.8793 13.5016 42.4231 13.7302 41.8711 13.9102C41.3192 14.0901 40.6772 14.1797 39.9453 14.1797C38.5293 14.1797 37.4005 13.7963 36.5605 13.0283C35.7207 12.2604 35.2831 11.1202 35.2471 9.6084V8.97754C35.2831 8.02974 35.493 7.21974 35.877 6.54785C36.2729 5.8639 36.8131 5.34798 37.4971 5C38.193 4.64005 39.0029 4.45999 39.9268 4.45996ZM39.9268 6.42188C39.6028 6.42191 39.3266 6.50028 39.0986 6.65625C38.8828 6.81224 38.7147 7.03442 38.5947 7.32227C38.4748 7.6102 38.415 7.94622 38.415 8.33008V8.36621H41.457V8.33008C41.457 7.94624 41.3972 7.61019 41.2773 7.32227C41.1694 7.03429 40.9949 6.81225 40.7549 6.65625C40.5269 6.50025 40.2508 6.42188 39.9268 6.42188Z" stroke="#00A76F" stroke-opacity="0.1" stroke-width="2" mask="url(#path-1-outside-1_29534_7660)"/>
<path fill-rule="evenodd" clip-rule="evenodd" d="M62.6279 4.45996C63.6117 4.46001 64.446 4.62234 65.1299 4.94629C65.8256 5.27024 66.3651 5.73225 66.749 6.33203C67.133 6.93198 67.3494 7.65787 67.3975 8.50977C67.4095 8.73777 67.415 9.00831 67.415 9.32031C67.415 9.62014 67.4095 9.88999 67.3975 10.1299C67.3495 10.9697 67.1395 11.6957 66.7676 12.3076C66.4076 12.9076 65.8796 13.3703 65.1836 13.6943C64.4997 14.0183 63.6477 14.1796 62.6279 14.1797C61.6199 14.1797 60.7673 14.0183 60.0713 13.6943C59.3873 13.3703 58.8593 12.9076 58.4873 12.3076C58.1274 11.6957 57.924 10.9697 57.876 10.1299C57.864 9.88999 57.8574 9.62015 57.8574 9.32031C57.8574 9.00831 57.864 8.73777 57.876 8.50977C57.924 7.6579 58.1395 6.93196 58.5234 6.33203C58.9074 5.73203 59.442 5.27029 60.126 4.94629C60.8219 4.62238 61.6561 4.45996 62.6279 4.45996ZM62.6279 6.65625C62.0999 6.65625 61.709 6.82416 61.457 7.16016C61.2052 7.48408 61.068 7.96402 61.0439 8.59961C61.0319 8.77961 61.0254 9.02031 61.0254 9.32031C61.0254 9.62017 61.0319 9.8601 61.0439 10.04C61.0679 10.6879 61.2051 11.1741 61.457 11.498C61.709 11.822 62.0999 11.9844 62.6279 11.9844C63.1677 11.9843 63.5579 11.822 63.7979 11.498C64.0498 11.1741 64.1935 10.6879 64.2295 10.04C64.2415 9.8601 64.2471 9.62017 64.2471 9.32031C64.2471 9.02031 64.2415 8.77961 64.2295 8.59961C64.1935 7.96398 64.0497 7.48409 63.7979 7.16016C63.5579 6.82425 63.1677 6.65634 62.6279 6.65625Z" stroke="#00A76F" stroke-opacity="0.1" stroke-width="2" mask="url(#path-1-outside-1_29534_7660)"/>
<path d="M71.8857 4.63965C72.0177 4.63965 72.126 4.68171 72.21 4.76562C72.2939 4.84959 72.3359 4.95791 72.3359 5.08984V10.0039C72.3359 11.1799 72.8639 11.7676 73.9199 11.7676C74.4118 11.7676 74.8019 11.6182 75.0898 11.3184C75.3898 11.0064 75.54 10.5679 75.54 10.0039V5.08984C75.5401 4.95791 75.582 4.84959 75.666 4.76562C75.75 4.68181 75.8584 4.63965 75.9902 4.63965H78.2402C78.3719 4.63973 78.4796 4.68195 78.5635 4.76562C78.6474 4.84959 78.6894 4.95791 78.6895 5.08984V13.5498C78.6895 13.6818 78.6475 13.79 78.5635 13.874C78.4796 13.9578 78.372 13.9999 78.2402 14H76.1514C76.0316 13.9999 75.924 13.9578 75.8281 13.874C75.7441 13.79 75.7021 13.6818 75.7021 13.5498V12.8662C75.3901 13.2982 74.9815 13.6284 74.4775 13.8564C73.9856 14.0723 73.3977 14.1797 72.7139 14.1797C72.0299 14.1797 71.4179 14.0239 70.8779 13.7119C70.3499 13.3999 69.9357 12.9438 69.6357 12.3438C69.3359 11.7319 69.1856 10.9881 69.1855 10.1123V5.08984C69.1856 4.95791 69.2276 4.84959 69.3115 4.76562C69.3955 4.68167 69.5038 4.63967 69.6357 4.63965H71.8857Z" stroke="#00A76F" stroke-opacity="0.1" stroke-width="2" mask="url(#path-1-outside-1_29534_7660)"/>
<path d="M84.6592 4.45996C85.3551 4.45997 85.955 4.54395 86.459 4.71191C86.975 4.86791 87.4069 5.07223 87.7549 5.32422C88.1149 5.5762 88.3854 5.83368 88.5654 6.09766C88.7454 6.36166 88.8415 6.60236 88.8535 6.81836C88.8654 6.9381 88.8289 7.04577 88.7451 7.1416C88.6611 7.2256 88.565 7.26758 88.457 7.26758H86.585C86.5371 7.26757 86.4893 7.26194 86.4414 7.25C86.3935 7.22603 86.3514 7.20171 86.3154 7.17773C86.1714 7.10573 86.0268 7.00965 85.8828 6.88965C85.7389 6.76976 85.5707 6.66233 85.3789 6.56641C85.1869 6.47042 84.9471 6.42189 84.6592 6.42188C84.3354 6.42188 84.0833 6.49385 83.9033 6.6377C83.7233 6.7817 83.6328 6.96829 83.6328 7.19629C83.6329 7.35218 83.6814 7.49601 83.7773 7.62793C83.8854 7.75989 84.0953 7.88031 84.4072 7.98828C84.7312 8.09626 85.2295 8.21569 85.9014 8.34766C86.7292 8.47965 87.3889 8.69616 87.8809 8.99609C88.3729 9.28409 88.7208 9.62646 88.9248 10.0225C89.1287 10.4064 89.2314 10.8142 89.2314 11.2461C89.2314 11.8221 89.057 12.3324 88.709 12.7764C88.373 13.2202 87.8691 13.5684 87.1973 13.8203C86.5253 14.0603 85.709 14.1797 84.749 14.1797C83.969 14.1797 83.303 14.0957 82.751 13.9277C82.2111 13.7478 81.7669 13.5322 81.4189 13.2803C81.0829 13.0283 80.8311 12.7699 80.6631 12.5059C80.4951 12.2299 80.4056 11.9957 80.3936 11.8037C80.3816 11.6718 80.4236 11.5644 80.5195 11.4805C80.6155 11.3845 80.7172 11.3359 80.8252 11.3359H82.877C82.9127 11.3359 82.9429 11.3417 82.9668 11.3535C82.9908 11.3655 83.0272 11.3898 83.0752 11.4258C83.2312 11.5098 83.387 11.618 83.543 11.75C83.699 11.87 83.879 11.9782 84.083 12.0742C84.287 12.1702 84.5333 12.2178 84.8213 12.2178C85.1572 12.2177 85.439 12.1515 85.667 12.0195C85.8949 11.8875 86.0088 11.6897 86.0088 11.4258C86.0087 11.2339 85.9546 11.078 85.8467 10.958C85.7386 10.8261 85.5165 10.7 85.1807 10.5801C84.8567 10.4601 84.3648 10.3397 83.7051 10.2197C83.0812 10.0758 82.5353 9.89004 82.0674 9.66211C81.5995 9.42215 81.2393 9.11605 80.9873 8.74414C80.7354 8.36024 80.6094 7.89823 80.6094 7.3584C80.6094 6.8784 80.7651 6.41568 81.0771 5.97168C81.3891 5.52779 81.8454 5.16755 82.4453 4.8916C83.0452 4.60371 83.7833 4.45996 84.6592 4.45996Z" stroke="#00A76F" stroke-opacity="0.1" stroke-width="2" mask="url(#path-1-outside-1_29534_7660)"/>
<path fill-rule="evenodd" clip-rule="evenodd" d="M95.2383 4.45996C96.2943 4.45996 97.1646 4.66984 97.8486 5.08984C98.5445 5.50979 99.0661 6.07998 99.4141 6.7998C99.762 7.51971 99.9365 8.34178 99.9365 9.26562V9.69824C99.9365 9.83013 99.8879 9.93851 99.792 10.0225C99.7081 10.1062 99.6061 10.1484 99.4863 10.1484H93.7266V10.2744C93.7386 10.6221 93.7984 10.9398 93.9062 11.2275C94.0142 11.5155 94.1822 11.7441 94.4102 11.9121C94.6382 12.0801 94.9143 12.1641 95.2383 12.1641C95.4782 12.1641 95.676 12.1276 95.832 12.0557C95.9999 11.9717 96.1381 11.8821 96.2461 11.7861C96.3541 11.6781 96.438 11.5876 96.498 11.5156C96.6059 11.3958 96.69 11.3239 96.75 11.2998C96.822 11.2638 96.9303 11.2461 97.0742 11.2461H99.3066C99.4265 11.2462 99.5228 11.2816 99.5947 11.3535C99.6787 11.4135 99.7141 11.504 99.7021 11.624C99.6901 11.828 99.5885 12.0743 99.3965 12.3623C99.2046 12.6501 98.9225 12.9378 98.5508 13.2256C98.1908 13.5015 97.7345 13.7302 97.1826 13.9102C96.6306 14.0902 95.9879 14.1797 95.2559 14.1797C93.8401 14.1796 92.712 13.7962 91.8721 13.0283C91.0321 12.2604 90.5947 11.1202 90.5586 9.6084V8.97754C90.5946 8.02974 90.8045 7.21974 91.1885 6.54785C91.5845 5.86395 92.1247 5.34797 92.8086 5C93.5045 4.64008 94.3144 4.45996 95.2383 4.45996ZM95.2383 6.42188C94.9143 6.42188 94.6382 6.50025 94.4102 6.65625C94.1943 6.81224 94.0262 7.03436 93.9062 7.32227C93.7863 7.61021 93.7266 7.94619 93.7266 8.33008V8.36621H96.7686V8.33008C96.7686 7.94611 96.7079 7.61025 96.5879 7.32227C96.4799 7.03434 96.3063 6.81224 96.0664 6.65625C95.8384 6.50025 95.5623 6.42188 95.2383 6.42188Z" stroke="#00A76F" stroke-opacity="0.1" stroke-width="2" mask="url(#path-1-outside-1_29534_7660)"/>
<path d="M4.2041 1.40039C4.53998 1.40042 4.72568 1.53202 4.76172 1.7959L5.93164 8.83398L7.22754 4.67578C7.26354 4.57979 7.32421 4.4781 7.4082 4.37012C7.4922 4.25013 7.63027 4.19043 7.82227 4.19043H9.11816C9.32207 4.19046 9.46583 4.25016 9.5498 4.37012C9.63374 4.47803 9.68789 4.57985 9.71191 4.67578L11.0078 8.81641L12.1777 1.7959C12.2138 1.53194 12.4004 1.40039 12.7363 1.40039H14.9678C15.0758 1.40039 15.1663 1.44237 15.2383 1.52637C15.3101 1.59829 15.3457 1.68246 15.3457 1.77832V1.9043L13.3838 13.4062C13.3597 13.5621 13.2879 13.7004 13.168 13.8203C13.048 13.9402 12.8855 14 12.6816 14H10.9717C10.7678 13.9999 10.6118 13.9458 10.5039 13.8379C10.396 13.73 10.3241 13.6281 10.2881 13.5322L8.46973 8.38379L6.65234 13.5322C6.61633 13.6282 6.54351 13.7299 6.43555 13.8379C6.33959 13.9457 6.19006 13.9999 5.98633 14H4.27637C4.07247 14 3.91002 13.9402 3.79004 13.8203C3.67011 13.7004 3.59826 13.5621 3.57422 13.4062L1.6123 1.9043C1.60031 1.88031 1.59376 1.85602 1.59375 1.83203V1.77832C1.59375 1.68237 1.63022 1.59834 1.70215 1.52637C1.78605 1.44246 1.8758 1.40048 1.97168 1.40039H4.2041Z" stroke="#00A76F" stroke-opacity="0.1" stroke-width="2" mask="url(#path-1-outside-1_29534_7660)"/>
<path d="M29.9512 4.63965C30.0832 4.63965 30.1914 4.68818 30.2754 4.78418C30.3593 4.86813 30.4013 4.96994 30.4014 5.08984V5.80957C30.7253 5.43767 31.1098 5.15025 31.5537 4.94629C32.0096 4.74237 32.5192 4.6397 33.083 4.63965H33.875C33.995 4.63965 34.0977 4.68169 34.1816 4.76562C34.2776 4.84959 34.3252 4.95791 34.3252 5.08984V6.94434C34.3251 7.06407 34.2773 7.17174 34.1816 7.26758C34.0976 7.35158 33.995 7.39355 33.875 7.39355H32.1299C31.638 7.39355 31.2535 7.53177 30.9775 7.80762C30.7135 8.07162 30.5811 8.45038 30.5811 8.94238V13.5498C30.5811 13.6818 30.5335 13.79 30.4375 13.874C30.3535 13.958 30.2453 14 30.1133 14H27.8818C27.7499 14 27.6416 13.958 27.5576 13.874C27.4736 13.79 27.4316 13.6818 27.4316 13.5498V5.08984C27.4317 4.96992 27.4737 4.86814 27.5576 4.78418C27.6416 4.68818 27.7498 4.63965 27.8818 4.63965H29.9512Z" stroke="#00A76F" stroke-opacity="0.1" stroke-width="2" mask="url(#path-1-outside-1_29534_7660)"/>
<path d="M49.1562 1.21973C49.2882 1.21973 49.3965 1.2618 49.4805 1.3457C49.5645 1.42969 49.6064 1.53796 49.6064 1.66992V5.68359C49.9304 5.3117 50.327 5.01772 50.7949 4.80176C51.2747 4.57394 51.8265 4.45999 52.4502 4.45996C53.1462 4.45996 53.7647 4.61573 54.3047 4.92773C54.8567 5.23973 55.2886 5.70247 55.6006 6.31445C55.9124 6.91438 56.0684 7.65252 56.0684 8.52832V13.5498C56.0684 13.6818 56.0264 13.79 55.9424 13.874C55.8584 13.958 55.7501 14 55.6182 14H53.2969C53.1769 14 53.0686 13.958 52.9727 13.874C52.8887 13.79 52.8467 13.6818 52.8467 13.5498V8.63574C52.8466 8.07187 52.7086 7.6398 52.4326 7.33984C52.1686 7.02786 51.7721 6.87207 51.2441 6.87207C50.7524 6.87214 50.3566 7.02802 50.0566 7.33984C49.7567 7.6398 49.6065 8.07187 49.6064 8.63574V13.5498C49.6064 13.6818 49.5645 13.79 49.4805 13.874C49.3965 13.958 49.2882 14 49.1562 14H46.8525C46.7205 14 46.6123 13.958 46.5283 13.874C46.4444 13.79 46.4023 13.6818 46.4023 13.5498V1.66992C46.4024 1.53796 46.4443 1.42969 46.5283 1.3457C46.6123 1.26175 46.7206 1.21973 46.8525 1.21973H49.1562Z" stroke="#00A76F" stroke-opacity="0.1" stroke-width="2" mask="url(#path-1-outside-1_29534_7660)"/>
</svg>
